<svg width="20" height="20" viewBox="0 0 20 20" fill="none" xmlns="http://www.w3.org/2000/svg">
<path d="M9.959 7.385C9.86353 7.29065 9.73472 7.23774 9.6005 7.23774C9.46628 7.23774 9.33747 7.29065 9.242 7.385L6.378 10.192C6.33089 10.2383 6.29348 10.2936 6.26794 10.3545C6.24241 10.4155 6.22925 10.4809 6.22925 10.547C6.22925 10.6131 6.24241 10.6785 6.26794 10.7395C6.29348 10.8004 6.33089 10.8557 6.378 10.902C6.47347 10.9964 6.60228 11.0493 6.7365 11.0493C6.87072 11.0493 6.99953 10.9964 7.095 10.902L9.6 8.6L12.106 10.902C12.2018 10.9962 12.3307 11.0489 12.465 11.0489C12.5993 11.0489 12.7282 10.9962 12.824 10.902C12.8709 10.8555 12.9081 10.8002 12.9334 10.7393C12.9588 10.6784 12.9719 10.613 12.9719 10.547C12.9719 10.481 12.9588 10.4156 12.9334 10.3547C12.9081 10.2938 12.8709 10.2385 12.824 10.192L9.959 7.385ZM9.6 0C7.05392 0 4.61212 1.01143 2.81177 2.81177C1.01143 4.61212 0 7.05392 0 9.6C0 14.903 4.298 19.2 9.6 19.2C14.902 19.2 19.2 14.903 19.2 9.6C19.2 8.33931 18.9517 7.09096 18.4692 5.92624C17.9868 4.76151 17.2797 3.70322 16.3882 2.81177C15.4968 1.92033 14.4385 1.2132 13.2738 0.730757C12.109 0.248311 10.8607 0 9.6 0ZM9.6 17.954C8.5029 17.9541 7.41652 17.7381 6.40291 17.3184C5.38929 16.8986 4.4683 16.2832 3.69254 15.5075C2.91677 14.7317 2.30142 13.8107 1.88164 12.7971C1.46186 11.7835 1.24587 10.6971 1.246 9.6C1.246 7.94774 1.73595 6.33257 2.6539 4.95877C3.57185 3.58496 4.87657 2.5142 6.40306 1.88191C7.92956 1.24962 9.60927 1.08418 11.2298 1.40652C12.8503 1.72886 14.3388 2.5245 15.5072 3.69283C16.6755 4.86116 17.4711 6.3497 17.7935 7.97022C18.1158 9.59073 17.9504 11.2704 17.3181 12.7969C16.6858 14.3234 15.615 15.6281 14.2412 16.5461C12.8674 17.464 11.2523 17.954 9.6 17.954Z" fill="#FF98B1"/>
</svg>
